<svg width="400" height="400" viewBox="0 0 400 400" fill="none" xmlns="http://www.w3.org/2000/svg">
<path fill-rule="evenodd" clip-rule="evenodd" d="M95.061 110.566C95.061 53.3185 141.425 6.91036 198.619 6.91036C255.812 6.91036 302.177 53.3185 302.177 110.566V183.125C302.177 240.372 255.812 286.78 198.619 286.78C141.425 286.78 95.061 240.372 95.061 183.125V110.566ZM198.619 0C137.612 0 88.1572 49.502 88.1572 110.566V183.125C88.1572 244.188 137.612 293.69 198.619 293.69C259.625 293.69 309.081 244.188 309.081 183.125V110.566C309.081 49.502 259.625 0 198.619 0ZM271.123 109.388L269.384 104.861C268.836 103.433 267.169 102.697 265.662 103.217L223.538 117.741C214.063 121.009 204.045 114.362 204.045 104.809V48.4189C204.045 46.8984 202.745 45.6669 201.14 45.6669H196.057C194.452 45.6669 193.152 46.8984 193.152 48.4189V104.809C193.152 114.359 183.133 121.006 173.66 117.741L131.534 103.217C130.028 102.697 128.361 103.433 127.813 104.861L126.073 109.388C125.525 110.816 126.302 112.395 127.809 112.914L167.672 126.66C172.77 128.418 172.77 135.247 167.672 137.005L127.809 150.752C126.302 151.271 125.525 152.851 126.073 154.278L127.813 158.805C128.361 160.233 130.028 160.969 131.534 160.449L173.66 145.925C183.133 142.658 193.152 149.304 193.152 158.857V245.304C193.152 246.825 194.452 248.056 196.057 248.056H201.14C202.745 248.056 204.045 246.825 204.045 245.304V158.857C204.045 149.307 214.063 142.661 223.538 145.925L265.662 160.449C267.169 160.969 268.836 160.233 269.384 158.805L271.123 154.278C271.672 152.851 270.895 151.271 269.388 150.752L229.525 137.005C224.427 135.247 224.427 128.418 229.525 126.66L269.388 112.914C270.895 112.395 271.672 110.816 271.123 109.388ZM195.357 124.434L184.548 130.286C183.176 131.029 183.176 132.903 184.548 133.645L195.357 139.497C197.366 140.585 199.832 140.585 201.841 139.497L212.65 133.645C214.022 132.903 214.022 131.029 212.65 130.286L201.841 124.434C199.832 123.347 197.366 123.347 195.357 124.434Z" fill="#F6F6F4"/>
<path fill-rule="evenodd" clip-rule="evenodd" d="M219.533 389.999L222.274 393.912C217.975 397.826 212.555 399.938 206.013 399.938C191.372 399.938 180.532 388.881 180.532 375.526C180.532 362.109 190.998 351.052 205.577 351.052C213.739 351.052 219.408 354.717 222.087 357.388L218.785 361.549C215.795 358.568 211.496 356.456 205.079 356.456C194.674 356.456 186.887 364.469 186.887 375.836C186.887 386.396 195.609 394.596 206.075 394.596C212.493 394.596 217.041 392.297 219.533 389.999ZM300.788 398.944H326.768V393.664H306.769V351.984H300.788V398.944ZM338.276 398.946H366V393.666L344.257 393.728V376.584H360.144V371.242H344.257V357.328H364.006V352.048H338.276V398.946ZM269.867 399.006H257.095V351.984H267.251C276.347 351.984 283.574 354.468 283.574 364.034C283.574 368.445 279.649 372.482 276.16 373.662C280.832 374.47 287.499 378.383 287.499 385.465C287.499 393.85 281.518 399.006 269.867 399.006ZM263.076 372.234H266.877C273.294 372.234 277.281 369.376 277.281 364.221C277.281 359.127 273.481 357.326 268.372 357.326H263.076V372.234ZM263.076 393.726H270.739C277.842 393.726 281.144 390.372 281.144 385.527C281.144 380.806 277.032 377.576 270.802 377.576H263.076V393.726ZM234.941 399.006H240.922V351.984H234.941V399.006ZM161.582 351.984V391.428C159.028 393.54 154.729 394.596 150.742 394.596C140.898 394.596 137.16 390.558 137.16 378.88V351.984H131.179V381.924C131.179 393.975 137.908 400 149.309 400C158.405 400 164.324 397.142 167.563 393.602V351.984H161.582ZM123.297 399.006H114.887L96.1961 380.495H94.3893V399.006H88.4084V351.984H97.8159C105.915 351.984 116.382 354.406 116.382 365.898C116.382 373.476 111.024 379.067 102.8 380.185L123.297 399.006ZM94.3893 375.215H97.7536C105.853 375.215 110.152 371.302 110.152 365.96C110.152 360.059 105.977 357.326 98.9997 357.326H94.3893V375.215ZM75.7421 393.913L73.0008 389.999C70.5087 392.298 65.9607 394.596 59.5437 394.596C49.077 394.596 40.3548 386.397 40.3548 375.837C40.3548 364.469 48.1425 356.456 58.5468 356.456C64.9639 356.456 69.2627 358.568 72.2532 361.55L75.5552 357.388C72.8762 354.717 67.2068 351.052 59.0452 351.052C44.4667 351.052 34 362.109 34 375.526C34 388.881 44.8405 399.938 59.4814 399.938C66.023 399.938 71.4433 397.826 75.7421 393.913Z" fill="#F6F6F4"/>
</svg>
