<svg width="247" height="125" viewBox="0 0 247 125" fill="none" xmlns="http://www.w3.org/2000/svg">
<path d="M116.494 48.8442C120.519 48.8442 123.788 50.2811 126.306 53.1621C128.828 56.0389 129.857 59.5238 129.398 63.6156H108.643C109.002 65.6414 109.931 67.2851 111.439 68.5447C112.943 69.8075 114.761 70.4367 116.886 70.4367C118.523 70.4367 119.986 70.0335 121.278 69.2334C122.571 68.4333 123.578 67.3445 124.296 65.9714L128.614 67.8825C127.503 70.0112 125.915 71.7112 123.856 72.9888C121.793 74.2622 119.42 74.9032 116.739 74.9032C112.977 74.9032 109.822 73.6595 107.27 71.1711C104.715 68.6869 103.441 65.5947 103.441 61.8986C103.441 58.1994 104.693 55.0998 107.196 52.5965C109.695 50.0953 112.794 48.8442 116.494 48.8442ZM116.494 53.3096C114.594 53.3096 112.95 53.8911 111.561 55.0499C110.169 56.2129 109.247 57.723 108.788 59.5896H124.196C123.773 57.723 122.863 56.2129 121.474 55.0499C120.083 53.8911 118.423 53.3096 116.494 53.3096Z" fill="white"/>
<path d="M142.796 72.8391L150.502 49.3323H155.753L146.97 74.4086H138.234L129.451 49.3323H135.042L142.796 72.8391Z" fill="white"/>
<path d="M158.427 44.3777C157.79 43.7558 157.472 43.0035 157.472 42.1185C157.472 41.2367 157.79 40.4822 158.427 39.8593C159.063 39.2406 159.826 38.9297 160.708 38.9297C161.593 38.9297 162.345 39.2406 162.967 39.8593C163.589 40.4811 163.9 41.2367 163.9 42.1185C163.9 43.0035 163.589 43.7548 162.967 44.3777C162.346 45.0006 161.593 45.3073 160.708 45.3073C159.826 45.3073 159.063 44.9995 158.427 44.3777ZM163.258 74.4085H158.107V49.3323H163.258V74.4085Z" fill="white"/>
<path d="M182.688 48.8442C185.535 48.8442 187.857 49.8407 189.657 51.8367C191.456 53.8328 192.356 56.3689 192.356 59.4431V74.4087H187.205V60.2262C187.205 58.2971 186.584 56.7011 185.339 55.4425C184.095 54.184 182.558 53.5537 180.725 53.5537C178.666 53.5537 176.981 54.1829 175.671 55.4425C174.363 56.7011 173.708 58.2971 173.708 60.2262V74.4087H168.558V49.3324H173.708V55.8086C174.397 53.6502 175.534 51.9503 177.119 50.7055C178.708 49.4661 180.563 48.8442 182.688 48.8442Z" fill="white"/>
<path d="M206.884 72.9866L214.834 49.3323H220.085L208.306 84.2211H203.056L206.396 74.4086H202.323L193.784 49.3323H199.375L206.884 72.9866Z" fill="white"/>
<path d="M84.2129 76.0153C86.2715 71.8576 87.1714 67.1249 86.6567 62.5109C85.1149 49.4555 74.3133 38.1021 61.5295 35.4747C58.7281 34.9038 55.8268 34.7987 52.9723 34.8634C43.3486 35.0598 33.4066 39.1442 30.4067 49.0406C24.4303 68.6773 47.8119 101.106 69.4044 91.6674C76.1735 88.6558 80.9944 82.5287 84.2129 76.0153ZM84.8889 76.358C81.1621 83.4147 76.4951 90.8662 69.2548 94.7607C62.318 98.5395 54.2383 97.5929 47.5243 93.8003C36.155 87.4949 27.5299 73.4685 26.2746 60.6083C25.2166 49.2263 30.1733 39.714 40.8146 35.1096C44.5934 33.4723 48.6385 32.5034 52.6975 31.8795C57.2488 31.1844 61.8924 30.8194 66.448 31.7871C76.7625 33.78 85.5224 42.1186 88.0469 52.2792C90.1702 60.3207 88.6836 69.1039 84.8889 76.358Z" fill="#8F8F8F"/>
<path d="M62.9873 87.341C68.7271 86.5907 74.105 83.7532 77.9846 79.4788C82.9137 74.0106 85.7587 66.9221 86.892 59.7147C88.0232 52.1189 87.1923 43.7506 82.4776 37.4399C79.0861 32.9299 74.1114 30.1263 68.6347 28.9538C63.417 27.9149 57.9648 28.8445 53.1068 30.9052C44.0614 34.7806 35.9064 42.3265 33.4276 52.034C31.2384 60.2686 33.1856 69.2057 38.1996 76.0619C43.8885 84.046 53.11 88.7544 62.9873 87.341ZM63.0828 88.0933C48.4366 89.91 33.5782 81.9778 29.3145 67.372C27.4681 61.2788 27.6984 54.5872 29.9151 48.6234C35.5393 33.9656 51.9947 24.0395 67.5757 26.5205C79.0171 28.5367 88.3639 36.6323 91.5908 47.8594C94.0071 56.1651 92.7146 65.4481 88.2195 72.8264C82.8395 81.6956 73.2105 86.9494 63.0828 88.0933Z" fill="#D9D9D9"/>
<path d="M41.2248 85.485C47.7499 91.2153 55.994 94.6651 64.7475 94.1313C79.2653 93.4044 90.3693 80.9825 89.4789 66.435C89.2253 61.976 87.8745 57.5711 85.9028 53.5727C79.6017 40.1405 63.4455 32.6222 49.5613 38.5074C46.1708 39.9378 43.0309 41.9997 40.43 44.6069C33.7988 51.2148 30.9538 61.2958 32.64 70.4664C33.6852 76.2603 36.7828 81.6287 41.2248 85.485ZM40.7207 86.0516C32.3513 78.5365 27.2885 66.6939 29.7324 55.4488C31.5969 46.4778 38.1028 38.7621 46.4627 35.0947C55.9516 30.7386 67.6392 31.873 76.1094 37.9227C80.6002 41.0521 84.1965 45.3795 86.6966 50.2194C92.8439 61.7457 94.9598 77.0371 87.225 88.3406C83.7741 93.3736 78.3675 97.0559 72.3889 98.3218C60.3904 100.994 49.2089 93.7928 40.7207 86.0516Z" fill="white"/>
</svg>
