<svg width="542" height="542" viewBox="0 0 542 542" fill="none" xmlns="http://www.w3.org/2000/svg">
<path fill-rule="evenodd" clip-rule="evenodd" d="M246 0.389408C244.625 0.619408 239.45 1.29841 234.5 1.89941C197.728 6.36141 154.482 22.4424 122.5 43.5454C83.004 69.6064 50.787 105.343 29.856 146.312C9.416 186.318 0 225.585 0 270.812C0 308.321 5.898 338.956 19.638 372.812C33.831 407.787 51.925 434.874 79.442 462.341C103.32 486.175 123.145 500.478 151.5 514.327C178.825 527.673 203.741 535.37 234.5 539.967C246.733 541.795 295.286 541.793 307.5 539.964C364.196 531.473 415.434 507.253 455.018 470.235C501.509 426.757 529.441 373.978 539.726 310.178C541.969 296.265 542.239 248.244 540.152 234.312C534.085 193.806 519.268 154.171 498.28 122.312C455.497 57.3674 389.666 15.0614 311.442 2.24341C302.004 0.696408 252.547 -0.704592 246 0.389408ZM302 24.8034C396.97 37.1404 476.195 102.365 506.443 193.12C515.102 219.099 518.449 240.757 518.449 270.812C518.449 292.518 517.491 303.04 513.911 320.64C503.169 373.45 473.821 423.184 432.5 458.603C396.471 489.487 353.109 509.066 304.305 516.489C288.943 518.825 253.567 518.818 237.5 516.475C188.674 509.355 144.946 489.29 107.051 456.615L102.763 452.917L185.928 306.992C231.669 226.732 269.635 160.337 270.297 159.445C271.322 158.064 272.547 159.632 278.595 170.068C282.498 176.802 306.372 217.637 331.649 260.812C356.926 303.987 379.127 342.012 380.985 345.312C385.996 354.213 388.553 357.263 394.304 361.2C408.508 370.923 427.971 369.034 439.392 356.825C445.002 350.826 447.548 345.819 448.968 337.989C452.188 320.229 441.176 303.059 423.494 298.273C413.598 295.594 406.538 296.604 395.581 302.265C390.675 304.799 386.293 306.505 385.844 306.056C385.394 305.606 362.802 267.23 335.639 220.775C308.477 174.32 284.9 134.917 283.246 133.211C277.483 127.266 266.247 126.754 259.698 132.137C258.179 133.386 220.75 198.044 171.776 284.02C124.874 366.359 86.05 433.853 85.5 434.006C84.95 434.159 81.434 430.465 77.686 425.798C52.057 393.882 33.361 352.348 26.601 312.312C21.363 281.293 22.272 246.147 29.071 216.812C39.963 169.811 62.082 129.67 95.477 96.2974C116.651 75.1374 135.26 61.7494 161.5 48.7984C191.045 34.2154 216.582 27.1694 253.5 23.4144C260.404 22.7114 293.112 23.6484 302 24.8034ZM422.046 323.562C427.868 328.765 426.79 338.801 420.033 342.295C415.944 344.409 410.757 344.195 407.693 341.785C405.25 339.864 399 330.081 399 328.179C399 327.69 401.587 325.843 404.75 324.075C412.295 319.855 417.717 319.694 422.046 323.562Z" fill="white"/>
</svg>
